<svg xmlns="http://www.w3.org/2000/svg" width="512" height="512" viewBox="0 0 512 512">
<g>
<path d="M 231.50 510.95 C139.56,501.52 59.95,444.15 22.03,360.00 C12.90,339.75 5.45,313.01 1.82,287.50 C0.14,275.74 0.14,236.26 1.82,224.50 C10.31,164.85 34.91,115.04 76.08,74.14 C116.02,34.46 165.91,10.16 224.50,1.82 C236.38,0.12 275.66,0.15 288.00,1.86 C346.65,9.98 397.01,34.96 437.73,76.14 C478.04,116.92 501.79,165.56 510.18,224.50 C511.86,236.26 511.86,275.74 510.18,287.50 C502.44,341.93 480.07,390.34 445.20,428.14 C403.53,473.31 351.96,500.65 291.50,509.60 C279.27,511.41 243.78,512.21 231.50,510.95 ZM 236.58 352.23 C237.17,351.83 239.57,348.65 241.91,345.17 C246.68,338.10 246.80,335.22 242.44,332.37 C238.77,329.96 235.78,331.73 230.99,339.14 C226.59,345.95 226.26,347.50 228.56,350.78 C230.11,352.99 234.34,353.76 236.58,352.23 ZM 273.32 351.84 C278.13,349.27 279.46,343.97 276.25,340.12 C275.29,338.96 270.00,335.62 264.50,332.70 C255.92,328.14 254.45,327.00 254.18,324.63 C253.78,321.19 255.52,319.00 258.65,319.00 C259.97,319.00 267.00,322.18 274.28,326.07 C289.16,334.03 292.29,334.94 296.82,332.60 C300.71,330.58 302.00,328.24 302.00,323.18 C302.00,317.70 300.11,315.82 288.00,309.22 C278.90,304.26 277.46,303.13 277.18,300.69 C276.79,297.28 278.49,295.00 281.41,295.00 C282.60,295.00 290.31,298.59 298.54,302.98 C315.66,312.11 318.98,312.80 324.02,308.25 C325.93,306.53 327.26,304.20 327.58,302.00 C328.49,295.78 325.92,293.36 308.65,284.18 C300.04,279.60 292.51,274.96 291.93,273.86 C290.49,271.18 293.17,267.00 296.32,267.00 C297.57,267.00 308.02,272.04 319.55,278.19 C343.21,290.83 345.77,291.51 350.96,286.54 C354.53,283.12 355.08,277.59 352.28,273.30 C349.76,269.46 328.45,255.70 313.77,248.44 C306.76,244.97 296.61,240.69 291.21,238.92 L 281.39 235.70 L 253.95 244.85 C224.76,254.58 219.91,255.48 213.36,252.37 C211.46,251.47 208.41,248.88 206.57,246.62 C202.79,241.95 198.00,232.90 198.00,230.41 C198.00,228.20 212.74,213.19 221.50,206.47 C225.35,203.52 232.22,198.87 236.76,196.14 L 245.03 191.17 L 237.26 188.59 C232.99,187.16 228.14,186.01 226.50,186.01 C221.31,186.03 213.30,188.66 205.30,192.98 C196.50,197.72 191.14,198.70 182.58,197.11 C179.33,196.50 176.50,196.16 176.31,196.36 C176.12,196.55 170.74,212.86 164.36,232.60 C157.98,252.35 152.10,269.79 151.30,271.36 C149.91,274.07 149.99,274.42 152.77,277.86 C155.12,280.78 156.48,281.55 159.60,281.76 C167.57,282.28 170.21,283.19 174.21,286.81 C178.70,290.86 181.00,295.31 181.00,299.95 C181.00,302.42 181.49,303.07 183.75,303.56 C189.45,304.81 192.18,306.40 195.93,310.66 L 199.80 315.05 L 203.35 312.95 C207.66,310.42 216.41,310.13 220.76,312.38 C223.68,313.89 229.41,319.74 230.16,321.97 C230.44,322.82 231.28,322.84 233.34,322.06 C240.98,319.16 248.94,321.86 253.82,329.02 C255.90,332.07 256.14,333.34 255.73,339.30 L 255.26 346.10 L 261.88 349.50 C269.28,353.30 270.21,353.49 273.32,351.84 ZM 209.13 348.93 C212.43,347.16 221.00,333.18 221.00,329.56 C221.00,323.59 214.74,319.62 209.04,321.98 C205.05,323.63 196.00,337.43 196.00,341.85 C196.00,348.13 203.29,352.05 209.13,348.93 ZM 177.91 342.05 C180.98,340.41 190.00,325.69 190.00,322.33 C190.00,316.31 182.53,312.04 177.09,314.95 C173.90,316.66 165.00,331.31 165.00,334.85 C165.00,341.00 172.28,345.06 177.91,342.05 ZM 157.57 320.79 C160.43,319.48 169.50,306.85 170.53,302.72 C172.07,296.62 165.23,290.98 158.95,293.17 C155.88,294.24 147.16,305.73 145.55,310.82 C144.47,314.26 146.84,319.02 150.42,320.58 C154.27,322.26 154.34,322.26 157.57,320.79 ZM 140.78 268.16 C142.59,267.01 172.19,175.17 171.48,172.92 C171.04,171.56 166.14,169.52 152.55,165.04 C142.46,161.72 133.27,159.00 132.13,159.00 C130.98,159.00 129.41,160.01 128.63,161.25 C126.62,164.45 99.00,250.31 99.00,253.36 C99.00,254.75 99.55,256.25 100.22,256.69 C102.10,257.94 135.25,268.78 137.50,268.88 C138.60,268.93 140.08,268.60 140.78,268.16 ZM 392.84 263.37 C402.55,260.28 411.06,257.30 411.75,256.75 C412.44,256.20 413.00,254.66 413.00,253.32 C413.00,250.34 385.34,164.38 383.37,161.25 C382.59,160.01 380.95,159.00 379.73,159.00 C378.50,159.00 369.31,161.73 359.30,165.07 C346.00,169.50 340.94,171.62 340.52,172.95 C339.81,175.17 369.43,267.02 371.22,268.16 C373.32,269.49 374.43,269.24 392.84,263.37 ZM 356.75 260.75 C356.50,260.06 351.84,245.63 346.39,228.69 C336.60,198.18 336.48,197.88 334.00,198.46 C332.62,198.78 327.83,199.32 323.35,199.65 L 315.21 200.27 L 304.66 194.99 C287.48,186.38 279.54,186.88 255.20,198.10 C250.63,200.20 242.53,204.80 237.20,208.31 C226.18,215.58 210.00,229.43 210.00,231.60 C210.00,233.71 214.56,240.58 217.18,242.41 C218.43,243.29 220.24,244.00 221.20,244.00 C222.17,244.00 236.13,239.67 252.23,234.37 L 281.50 224.74 L 293.00 228.45 C307.93,233.26 329.53,244.04 344.00,253.90 C355.86,261.98 357.54,262.89 356.75,260.75 Z" fill="rgba(0,0,0,1)"/>
</g>
</svg>