<svg xmlns="http://www.w3.org/2000/svg" width="512" height="512" viewBox="0 0 512 512">
<g>
<path d="M 208.39 412.44 C199.99,409.34 193.04,401.19 191.20,392.27 L 190.42 388.50 L 184.22 387.90 C173.20,386.84 163.65,378.45 160.86,367.35 C159.90,363.56 159.41,363.00 157.06,363.00 C145.18,363.00 132.69,352.53 130.47,340.70 C129.82,337.22 129.55,337.00 126.07,337.00 C116.69,337.00 107.06,330.77 102.59,321.80 C99.33,315.26 99.05,305.68 101.94,299.33 L 103.83 295.16 L 99.67 292.39 C97.37,290.87 88.84,285.44 80.70,280.32 C66.13,271.15 65.87,271.04 63.39,272.66 C58.41,275.93 53.78,274.94 30.22,265.59 C17.96,260.72 6.77,255.82 5.35,254.70 C2.34,252.33 0.00,247.30 0.00,243.18 C0.00,239.27 52.60,106.11 55.33,103.12 C58.00,100.20 62.96,98.00 66.89,98.00 C70.90,98.00 114.70,115.37 117.62,118.11 C120.43,120.75 123.18,127.58 122.79,130.94 C122.53,133.16 123.35,133.72 131.77,137.03 C140.96,140.66 141.20,140.69 160.27,141.36 C185.95,142.25 200.71,143.63 210.36,146.03 C214.76,147.12 218.56,148.22 218.81,148.47 C219.06,148.72 222.46,146.00 226.38,142.42 C234.46,135.03 240.96,131.49 249.18,129.97 C253.95,129.09 257.59,129.34 271.68,131.52 C292.70,134.78 292.74,134.79 294.52,137.34 C296.57,140.26 296.37,143.26 293.93,146.37 C291.35,149.64 290.50,149.65 270.63,146.54 C254.68,144.04 250.90,144.08 245.51,146.79 C243.86,147.62 235.98,154.42 228.00,161.90 C209.76,178.98 195.37,190.97 179.17,202.58 C164.13,213.36 163.25,215.04 170.19,219.75 C175.86,223.61 180.18,225.00 186.40,224.99 C197.64,224.96 212.00,218.51 225.85,207.26 C243.54,192.90 248.42,192.62 261.86,205.18 C280.96,223.05 305.16,231.72 329.27,229.32 C338.32,228.42 339.86,228.51 342.61,230.04 C344.32,230.99 356.03,239.39 368.63,248.70 C381.23,258.02 394.75,267.98 398.68,270.83 L 405.82 276.03 L 421.66 265.86 C430.37,260.26 437.59,255.62 437.71,255.55 C437.82,255.47 428.67,232.03 417.37,203.46 C406.06,174.88 396.43,150.52 395.96,149.33 C395.12,147.17 395.00,147.19 381.80,152.13 C362.49,159.36 357.12,159.94 336.87,156.98 C323.11,154.97 320.14,154.23 318.25,152.34 C315.21,149.30 315.33,144.98 318.55,141.96 L 321.09 139.56 L 337.10 141.89 C356.49,144.71 359.18,144.45 376.50,138.08 C388.24,133.76 389.47,133.08 389.24,131.04 C388.80,127.14 390.86,121.51 393.73,118.76 C397.04,115.60 440.56,98.00 445.06,98.00 C449.04,98.00 453.99,100.18 456.68,103.12 C459.02,105.68 480.00,157.86 480.00,161.13 C480.00,163.82 475.60,168.00 472.77,168.00 C467.82,168.00 466.39,165.55 456.03,139.28 C450.45,125.13 445.75,113.41 445.58,113.25 C445.41,113.08 436.04,116.60 424.75,121.07 L 404.21 129.20 L 407.43 137.35 C447.21,238.26 455.57,259.00 456.45,259.01 C457.33,259.01 495.94,244.17 496.77,243.51 C496.92,243.39 492.76,232.41 487.52,219.11 C482.28,205.81 478.00,193.82 478.00,192.46 C478.00,186.90 486.58,183.67 490.34,187.83 C492.78,190.52 512.00,239.63 512.00,243.17 C512.00,247.07 509.39,252.55 506.40,254.90 C505.12,255.91 494.04,260.70 481.79,265.54 C457.23,275.24 453.79,275.89 447.53,272.02 C443.15,269.31 444.86,268.62 426.37,280.61 L 415.25 287.83 L 416.68 293.16 C420.17,306.20 413.50,320.47 400.79,327.18 C397.36,328.99 394.86,329.45 388.25,329.47 C381.43,329.50 380.00,329.77 380.00,331.07 C380.00,335.82 376.31,342.84 371.07,348.07 C364.62,354.52 358.73,357.00 349.82,357.00 L 344.00 357.00 L 343.99 360.25 C343.98,365.00 339.77,373.25 335.01,377.88 C328.07,384.61 316.31,387.67 307.30,385.09 C304.27,384.22 304.09,384.33 303.44,387.34 C299.85,403.91 282.18,414.39 265.82,409.64 C262.49,408.67 257.26,405.81 252.66,402.46 L 245.04 396.89 L 241.77 400.67 C236.65,406.60 233.82,409.04 229.50,411.25 C224.29,413.92 213.95,414.50 208.39,412.44 ZM 222.36 398.05 C224.68,397.17 240.82,379.57 245.68,372.62 C249.52,367.12 249.11,360.91 244.60,356.40 C241.76,353.56 240.49,353.01 236.85,353.04 C234.46,353.05 231.49,353.63 230.27,354.31 C226.90,356.18 207.18,379.91 205.99,383.53 C202.95,392.74 212.96,401.63 222.36,398.05 ZM 280.63 394.37 C286.98,391.36 289.98,385.01 288.58,377.55 C288.04,374.70 286.35,372.85 278.91,366.99 C273.96,363.08 269.42,358.81 268.82,357.51 C267.22,354.00 268.59,350.26 272.15,348.42 C276.25,346.30 277.24,346.79 292.33,358.38 C299.03,363.51 305.94,368.46 307.70,369.36 C314.12,372.65 321.34,370.95 326.38,364.96 C328.48,362.46 328.99,360.83 328.96,356.67 C328.95,353.83 328.38,350.53 327.71,349.34 C327.05,348.14 321.10,343.05 314.50,338.02 C307.79,332.91 302.00,327.70 301.36,326.22 C299.34,321.50 302.82,316.10 307.94,316.03 C309.53,316.01 315.72,320.07 325.94,327.84 C344.34,341.85 344.60,342.00 350.29,342.00 C360.79,342.00 368.28,330.25 363.58,321.16 C362.80,319.65 355.87,313.58 348.18,307.68 C339.09,300.69 333.99,296.09 333.60,294.54 C332.14,288.74 337.48,283.60 342.82,285.64 C344.29,286.20 353.20,292.58 362.62,299.81 C372.03,307.04 380.95,313.41 382.43,313.98 C388.29,316.20 394.17,314.69 398.77,309.76 C403.48,304.72 403.60,296.57 399.05,290.79 C397.99,289.44 383.74,278.47 367.39,266.43 L 337.66 244.52 L 322.58 244.39 C309.91,244.28 305.97,243.85 297.88,241.72 C280.72,237.19 265.01,228.55 252.29,216.66 L 245.90 210.68 L 243.52 212.59 C224.63,227.73 211.42,235.45 199.00,238.60 C189.02,241.13 176.76,240.14 168.72,236.17 C156.49,230.11 151.00,223.35 151.00,214.36 C151.00,205.67 153.68,202.11 167.44,192.53 C178.92,184.53 202.94,165.29 205.75,161.83 C206.84,160.49 206.13,160.15 200.25,159.19 C194.30,158.22 173.24,156.86 145.50,155.66 C137.78,155.33 135.10,154.70 126.69,151.23 C116.95,147.22 116.87,147.20 116.03,149.34 C114.52,153.19 76.86,248.36 74.96,253.15 L 73.11 257.80 L 86.30 266.08 C93.56,270.63 102.60,276.39 106.39,278.86 L 113.28 283.36 L 116.78 279.43 C126.30,268.76 129.90,265.49 134.50,263.35 C144.34,258.76 156.94,261.09 164.80,268.95 C168.68,272.84 170.51,276.17 172.01,282.10 C173.10,286.43 173.19,286.50 177.66,286.77 C188.69,287.41 198.61,295.36 201.76,306.07 L 203.44 311.77 L 208.77 312.32 C219.81,313.45 229.70,322.13 232.26,332.91 L 233.47 338.00 L 237.99 338.01 C247.00,338.03 257.70,345.62 261.55,354.73 C263.57,359.51 263.62,370.39 261.64,375.00 C260.82,376.92 258.98,380.05 257.57,381.95 C256.15,383.84 255.33,385.68 255.75,386.02 C267.38,395.67 273.53,397.74 280.63,394.37 ZM 193.72 371.48 C195.76,370.06 210.91,352.98 215.79,346.62 C219.32,342.00 218.84,335.89 214.58,331.24 C211.50,327.88 210.65,327.50 206.18,327.50 C200.30,327.50 200.09,327.67 187.99,341.54 C178.08,352.90 175.01,357.46 175.00,360.85 C175.00,364.50 177.99,369.93 180.88,371.50 C184.35,373.38 191.02,373.37 193.72,371.48 ZM 162.69 346.25 C167.40,343.64 186.87,320.20 187.61,316.26 C189.85,304.34 176.17,296.91 167.27,305.20 C165.91,306.46 160.45,312.64 155.15,318.91 C145.63,330.17 145.50,330.40 145.50,335.56 C145.50,341.40 147.36,344.33 152.50,346.60 C156.58,348.40 158.96,348.32 162.69,346.25 ZM 132.70 320.71 C133.91,320.04 139.86,313.68 145.93,306.58 C157.68,292.84 159.29,289.54 156.98,283.96 C154.92,278.97 150.53,276.00 145.23,276.00 C140.97,276.00 140.22,276.40 135.56,281.26 C132.78,284.15 127.01,290.69 122.75,295.79 C115.91,303.98 115.00,305.54 115.00,309.08 C115.00,316.83 119.75,321.91 127.00,321.92 C128.93,321.93 131.49,321.38 132.70,320.71 ZM 78.99 202.25 C91.29,171.04 102.82,141.81 104.60,137.29 L 107.83 129.08 L 87.28 121.01 C75.98,116.57 66.59,113.07 66.43,113.24 C65.84,113.83 14.96,243.29 15.23,243.50 C16.23,244.29 53.81,258.83 55.06,258.90 C56.21,258.97 62.45,244.20 78.99,202.25 Z" fill="rgba(0,0,0,1)"/>
</g>
</svg>